<?xml version="1.0" encoding="UTF-8"?>
<svg xmlns="http://www.w3.org/2000/svg" xmlns:xlink="http://www.w3.org/1999/xlink" viewBox="0 0 4251.97 4251.97">
  <defs>
    <style>
      .cls-1 {
        fill: url(#radial-gradient);
      }

      .cls-2 {
        fill: #231f20;
      }
    </style>
    <radialGradient id="radial-gradient" cx="3755.14" cy="1596.44" fx="5601.97" fy="1286.65" r="1872.63" gradientTransform="translate(-251.6 -295.05) scale(1.11 1.14)" gradientUnits="userSpaceOnUse">
      <stop offset=".35" stop-color="#ffc20e"/>
      <stop offset=".64" stop-color="#ffc20e"/>
      <stop offset=".69" stop-color="#ffc20e"/>
    </radialGradient>
  </defs>
  <g id="Layer_3" data-name="Layer 3">
    <circle class="cls-1" cx="2125.98" cy="2125.98" r="2125.98"/>
  </g>
  <g id="Layer_2" data-name="Layer 2">
    <g>
      <path class="cls-2" d="M264.38,2069.86c0-64.75,12.59-123,37.81-174.75,25.22-51.73,60.27-92.17,105.17-121.3s95.83-43.69,152.77-43.69,111.67,14.56,156.42,43.69c44.73,29.12,79.22,69.41,103.47,120.81,24.23,51.42,36.36,109.83,36.36,175.23s-12.53,122.36-37.58,173.77c-25.06,51.42-59.95,91.69-104.69,120.81-44.75,29.12-95.25,43.69-151.53,43.69-60.2,0-112.83-14.47-157.89-43.44s-79.72-69.08-103.95-120.33c-24.25-51.25-36.36-109.41-36.36-174.5Zm546,0c0-62.47-11.08-116.41-33.2-161.8-22.14-45.39-52.17-79.89-90.09-103.48s-80.16-35.39-126.7-35.39-87.89,11.8-125.98,35.39-68.28,58.09-90.58,103.48-33.44,99.33-33.44,161.8,11.22,117.23,33.69,162.3,52.81,79.16,91.06,102.25c38.25,23.11,80.81,34.66,127.69,34.66s87.56-11.55,125-34.66c37.44-23.09,67.22-57.19,89.36-102.25,22.12-45.06,33.2-99.17,33.2-162.3Z"/>
      <path class="cls-2" d="M959.42,1940.13l119.09,326.14c12.69,33.2,23.27,63.8,31.73,91.78h1.95l152.28-417.92h41.97l-173.27,456h-42.95l-172.78-456h41.97Z"/>
      <path class="cls-2" d="M1353.51,2163c0-47.53,8.3-89.03,24.92-124.52,16.61-35.48,39.41-62.75,68.41-81.8,29-19.03,61.58-28.56,97.75-28.56,53.42,0,96.09,17.53,128.03,52.56,31.92,35.03,47.89,90.2,47.89,165.48v17.11h-326c0,71.84,15.8,124.59,47.42,158.23,31.62,33.66,76.12,50.47,133.5,50.47,48.89,0,91.92-8.62,129.08-25.89v36.64c-30.31,16.92-73.34,25.39-129.06,25.39-71.05,0-125.8-21.31-164.25-63.97-38.47-42.64-57.69-103.03-57.69-181.16Zm191.09-200.2c-40.41,0-74.47,15.42-102.17,46.23s-43.34,70.52-46.92,119.09h285c-.98-54.12-12.88-95.22-35.69-123.27-22.81-28.03-56.22-42.06-100.22-42.06Z"/>
      <path class="cls-2" d="M1873.59,1940.13l6.83,81.05h.98c17.91-26.77,43.38-48.97,76.44-66.59s67.02-26.45,101.86-26.45h12.7v38.58h-12.7c-35.83,0-70.27,9.78-103.31,29.31-33.06,19.55-58.05,45.11-74.98,76.7v323.41h-39v-456h31.19Z"/>
      <path class="cls-2" d="M2382.37,2324.13h334.97v72h-414.97v-653h396.91v72h-316.91v211h281.75v72h-281.75v226Z"/>
      <path class="cls-2" d="M3086.69,2344.86h-1.95c-6.2,7.81-14.03,15.55-23.5,23.19-9.47,7.66-20.39,14.48-32.8,20.5s-25.94,10.77-40.62,14.3c-14.69,3.52-30.34,5.28-46.97,5.28-22.53,0-43.17-3.34-61.92-10-18.77-6.66-34.92-16.41-48.45-29.25-13.55-12.84-24.08-28.53-31.58-47.06s-11.25-39.52-11.25-62.92,4.16-43.72,12.47-61.94c8.31-18.2,19.98-33.64,34.98-46.33,15-12.67,33.02-22.42,54.05-29.25s44.28-10.25,69.73-10.25c24.12,.33,46.45,2.44,67.02,6.34,20.55,3.91,38.81,8.8,54.8,14.66h1.95v-32.23c0-12.69-.83-23.92-2.45-33.69s-4.39-18.39-8.3-25.88c-8.47-15.62-21.97-28.56-40.53-38.81s-43.62-15.39-75.19-15.39c-23.44,0-45.5,2.12-66.17,6.36s-41.27,10.11-61.77,17.64v-62.91c7.81-3.86,17-7.48,27.59-10.88,10.58-3.39,21.73-6.3,33.45-8.72,11.72-2.41,24.08-4.27,37.11-5.56,13.02-1.28,26.03-1.94,39.06-1.94,46.88,0,85.23,8.31,115.08,24.91s51.3,38.56,64.38,65.91c4.91,10.41,8.42,21.88,10.55,34.41s3.19,26.3,3.19,41.27v309.52h-63.62l-8.33-51.27Zm-4.05-152.59c-13.98-3.91-30.56-7.67-49.73-11.27-19.19-3.59-40.31-5.55-63.39-5.88-32.19,0-57.38,6.86-75.58,20.58s-27.3,34.78-27.3,63.19c0,14.38,2.27,26.94,6.83,37.72,4.55,10.78,10.8,19.69,18.77,26.7,7.97,7.03,17.39,12.25,28.28,15.67,10.89,3.44,22.52,5.14,34.86,5.14,16.25,0,31.38-2.36,45.34-7.09s26.41-10.38,37.3-16.91,20.16-13.06,27.8-19.59,13.25-11.59,16.83-15.19v-93.08Z"/>
      <path class="cls-2" d="M3329.39,2055.78c0,12.69,2.7,23.11,8.14,31.23,5.42,8.14,12.69,14.73,21.78,19.77,9.09,5.05,19.62,9.2,31.59,12.45s24.33,6.17,37.09,8.77c17.55,3.91,34.14,8.22,49.78,12.94s30.08,11.8,43.33,21.23,23.94,22.22,32.08,38.31c8.12,16.11,12.2,37.02,12.2,62.7,0,23.44-4.58,44.17-13.7,62.23s-22.02,33.19-38.64,45.38c-16.64,12.2-36.53,21.47-59.69,27.81s-48.59,9.52-76.31,9.52c-16.97,0-32.38-.89-46.23-2.66-13.86-1.8-26.09-4.05-36.69-6.78s-19.64-5.55-27.14-8.45-13.7-5.64-18.59-8.23v-62.88c19.22,7.69,38.3,13.78,57.2,18.27,18.91,4.5,39.75,6.73,62.52,6.73,17.94,0,34.12-1.62,48.56-4.91,14.42-3.27,26.84-8.09,37.27-14.47,10.41-6.38,18.42-14.39,24.03-24.05,5.61-9.64,8.42-20.84,8.42-33.61s-2.56-23.73-7.69-32.2c-5.12-8.45-12.02-15.45-20.67-20.98s-18.67-10.08-30.05-13.66-23.31-6.83-35.8-9.77c-16.34-3.58-32.94-7.81-49.75-12.69-16.83-4.88-32.12-11.72-45.91-20.5s-24.92-20.73-33.41-35.86c-8.5-15.12-12.73-34.58-12.73-58.33s4.39-45.53,13.2-63.44c8.81-17.89,20.72-32.69,35.72-44.41s32.45-20.5,52.36-26.36c19.89-5.84,40.92-8.78,63.11-8.78,25.77,0,49.66,2.41,71.67,7.22s42,10.91,59.94,18.28v63.5c-19.12-7.22-38.48-13.12-58.08-17.69s-39.75-7-60.45-7.31c-17.53,0-32.52,1.81-44.94,5.41-12.44,3.59-22.62,8.59-30.59,14.97s-13.78,13.91-17.44,22.58c-3.67,8.67-5.5,18.23-5.5,28.7Z"/>
      <path class="cls-2" d="M3592.68,1932.13h76l143.61,363.81h2.95l147.44-363.81h76l-287.08,691h-75.2l99.13-236.36-182.84-454.64Z"/>
    </g>
  </g>
</svg>